<?xml version="1.0" encoding="utf-8"?>
<!-- Generator: Adobe Illustrator 22.1.0, SVG Export Plug-In . SVG Version: 6.00 Build 0)  -->
<svg version="1.1" id="Layer_1" xmlns="http://www.w3.org/2000/svg" xmlns:xlink="http://www.w3.org/1999/xlink" x="0px" y="0px"
	 viewBox="0 0 1042 318.8" style="enable-background:new 0 0 1042 318.8;" xml:space="preserve">
<style type="text/css">
	.st0{fill:#FFFFFF;}
	.st1{fill:url(#SVGID_1_);}
</style>
<g>
	<g>
		<path class="st0" d="M25.7,1.8c1.1,0,1.6,0.5,1.6,1.6V102c0,1.1,0.5,1.6,1.6,1.6h22.3c1.1,0,1.6-0.5,1.6-1.6V3.4
			c0-1.1,0.5-1.6,1.6-1.6h22.3c1.1,0,1.6,0.5,1.6,1.6V102c0,1.1,0.5,1.6,1.6,1.6H102c1.1,0,1.6-0.5,1.6-1.6V3.4
			c0-1.1,0.5-1.6,1.6-1.6h22.3c1.1,0,1.6,0.5,1.6,1.6v100.2c0,4.6-1.1,8.8-3.4,12.7c-2.3,3.9-5.4,7-9.3,9.3
			c-3.9,2.3-8.2,3.4-12.7,3.4H27.3c-4.6,0-8.8-1.1-12.7-3.4c-3.9-2.3-7-5.4-9.3-9.3c-2.3-3.9-3.4-8.2-3.4-12.7V3.4
			c0-1.1,0.5-1.6,1.6-1.6H25.7z"/>
		<path class="st0" d="M154.5,125.6c-3.9-2.3-7-5.4-9.3-9.3c-2.3-3.9-3.4-8.2-3.4-12.7V27.2c0-4.6,1.1-8.8,3.4-12.7
			c2.3-3.9,5.4-7,9.3-9.3c3.9-2.3,8.2-3.4,12.7-3.4h76.3c4.6,0,8.8,1.1,12.7,3.4c3.9,2.3,7,5.4,9.3,9.3c2.3,3.9,3.4,8.2,3.4,12.7
			v76.3c0,4.6-1.1,8.8-3.4,12.6c-2.3,3.9-5.4,7-9.2,9.3c-3.9,2.3-8.1,3.5-12.8,3.5h-76.3C162.6,129,158.4,127.8,154.5,125.6z
			 M168.8,103.5h73.1c1.1,0,1.6-0.5,1.6-1.6V28.8c0-1.1-0.5-1.6-1.6-1.6h-73.1c-1.1,0-1.6,0.5-1.6,1.6V102
			C167.2,103,167.7,103.5,168.8,103.5z"/>
		<path class="st0" d="M281.7,127.4V3.4c0-1.1,0.5-1.6,1.6-1.6h100.2c4.6,0,8.8,1.1,12.7,3.4c3.9,2.3,7,5.4,9.3,9.3
			c2.3,3.9,3.4,8.2,3.4,12.7v25.4c0,4.6-1.1,8.8-3.4,12.7c-2.3,3.9-5.4,7-9.3,9.3c-3.9,2.3-8.2,3.4-12.7,3.4h-22.7
			c-0.7,0-1.2,0.2-1.4,0.6c-0.2,0.4,0,0.8,0.6,1.4l22.7,22.7c0.5,0.5,1.2,0.8,1.9,0.8h22.7c1.1,0,1.6,0.5,1.6,1.6v22.3
			c0,1.1-0.5,1.6-1.6,1.6h-28.9c-3.6,0-6.7-1.3-9.2-3.8l-46.3-46.3c-0.5-0.5-1.2-0.8-1.9-0.8h-12.2c-1.1,0-1.6,0.5-1.6,1.6v47.7
			c0,1.1-0.5,1.6-1.6,1.6h-22.3C282.2,129,281.7,128.5,281.7,127.4z M308.7,52.7h73.1c1.1,0,1.6-0.5,1.6-1.6V28.8
			c0-1.1-0.5-1.6-1.6-1.6h-73.1c-1.1,0-1.6,0.5-1.6,1.6v22.3C307.1,52.1,307.6,52.7,308.7,52.7z"/>
		<path class="st0" d="M434.3,125.6c-3.9-2.3-7-5.4-9.3-9.3c-2.3-3.9-3.4-8.2-3.4-12.7V3.4c0-1.1,0.5-1.6,1.6-1.6h22.3
			c1.1,0,1.6,0.5,1.6,1.6V102c0,1.1,0.5,1.6,1.6,1.6h98.6c1.1,0,1.6,0.5,1.6,1.6v22.3c0,1.1-0.5,1.6-1.6,1.6H447
			C442.5,129,438.2,127.8,434.3,125.6z"/>
		<path class="st0" d="M561.5,127.4V3.4c0-1.1,0.5-1.6,1.6-1.6h100.2c4.6,0,8.8,1.1,12.7,3.4c3.9,2.3,7,5.4,9.3,9.3
			c2.3,3.9,3.4,8.2,3.4,12.7v76.3c0,4.6-1.1,8.8-3.4,12.7c-2.3,3.9-5.4,7-9.3,9.3c-3.9,2.3-8.2,3.4-12.7,3.4H563.1
			C562,129,561.5,128.5,561.5,127.4z M588.5,103.5h73.1c1.1,0,1.6-0.5,1.6-1.6V28.8c0-1.1-0.5-1.6-1.6-1.6h-73.1
			c-1.1,0-1.6,0.5-1.6,1.6V102C586.9,103,587.5,103.5,588.5,103.5z"/>
		<path class="st0" d="M786.7,125.6c-3.9-2.3-7-5.4-9.3-9.3c-2.3-3.9-3.4-8.2-3.4-12.7V27.2c0-4.6,1.1-8.8,3.4-12.7
			c2.3-3.9,5.4-7,9.3-9.3c3.9-2.3,8.2-3.4,12.7-3.4h76.3c4.6,0,8.8,1.1,12.7,3.4c3.9,2.3,7,5.4,9.3,9.3c2.3,3.9,3.4,8.2,3.4,12.7
			v76.3c0,4.6-1.1,8.8-3.4,12.6c-2.3,3.9-5.4,7-9.2,9.3c-3.9,2.3-8.1,3.5-12.8,3.5h-76.3C794.9,129,790.7,127.8,786.7,125.6z
			 M801,103.5h73.1c1.1,0,1.6-0.5,1.6-1.6V28.8c0-1.1-0.5-1.6-1.6-1.6H801c-1.1,0-1.6,0.5-1.6,1.6V102
			C799.5,103,800,103.5,801,103.5z"/>
		<path class="st0" d="M913.9,127.4V27.2c0-4.6,1.1-8.8,3.4-12.7c2.3-3.9,5.4-7,9.3-9.3c3.9-2.3,8.2-3.4,12.7-3.4h100.2
			c1.1,0,1.6,0.5,1.6,1.6v22.3c0,1.1-0.5,1.6-1.6,1.6H941c-1.1,0-1.6,0.5-1.6,1.6v22.3c0,1.1,0.5,1.6,1.6,1.6h98.6
			c1.1,0,1.6,0.5,1.6,1.6v22.3c0,1.1-0.5,1.6-1.6,1.6H941c-1.1,0-1.6,0.5-1.6,1.6v47.7c0,1.1-0.5,1.6-1.6,1.6h-22.3
			C914.5,129,913.9,128.5,913.9,127.4z"/>
	</g>
	<g>
		<path class="st0" d="M25.7,1.8c1.1,0,1.6,0.5,1.6,1.6V102c0,1.1,0.5,1.6,1.6,1.6h22.3c1.1,0,1.6-0.5,1.6-1.6V3.4
			c0-1.1,0.5-1.6,1.6-1.6h22.3c1.1,0,1.6,0.5,1.6,1.6V102c0,1.1,0.5,1.6,1.6,1.6H102c1.1,0,1.6-0.5,1.6-1.6V3.4
			c0-1.1,0.5-1.6,1.6-1.6h22.3c1.1,0,1.6,0.5,1.6,1.6v100.2c0,4.6-1.1,8.8-3.4,12.7c-2.3,3.9-5.4,7-9.3,9.3
			c-3.9,2.3-8.2,3.4-12.7,3.4H27.3c-4.6,0-8.8-1.1-12.7-3.4c-3.9-2.3-7-5.4-9.3-9.3c-2.3-3.9-3.4-8.2-3.4-12.7V3.4
			c0-1.1,0.5-1.6,1.6-1.6H25.7z"/>
		<path class="st0" d="M154.5,125.6c-3.9-2.3-7-5.4-9.3-9.3c-2.3-3.9-3.4-8.2-3.4-12.7V27.2c0-4.6,1.1-8.8,3.4-12.7
			c2.3-3.9,5.4-7,9.3-9.3c3.9-2.3,8.2-3.4,12.7-3.4h76.3c4.6,0,8.8,1.1,12.7,3.4c3.9,2.3,7,5.4,9.3,9.3c2.3,3.9,3.4,8.2,3.4,12.7
			v76.3c0,4.6-1.1,8.8-3.4,12.6c-2.3,3.9-5.4,7-9.2,9.3c-3.9,2.3-8.1,3.5-12.8,3.5h-76.3C162.6,129,158.4,127.8,154.5,125.6z
			 M168.8,103.5h73.1c1.1,0,1.6-0.5,1.6-1.6V28.8c0-1.1-0.5-1.6-1.6-1.6h-73.1c-1.1,0-1.6,0.5-1.6,1.6V102
			C167.2,103,167.7,103.5,168.8,103.5z"/>
		<path class="st0" d="M281.7,127.4V3.4c0-1.1,0.5-1.6,1.6-1.6h100.2c4.6,0,8.8,1.1,12.7,3.4c3.9,2.3,7,5.4,9.3,9.3
			c2.3,3.9,3.4,8.2,3.4,12.7v25.4c0,4.6-1.1,8.8-3.4,12.7c-2.3,3.9-5.4,7-9.3,9.3c-3.9,2.3-8.2,3.4-12.7,3.4h-22.7
			c-0.7,0-1.2,0.2-1.4,0.6c-0.2,0.4,0,0.8,0.6,1.4l22.7,22.7c0.5,0.5,1.2,0.8,1.9,0.8h22.7c1.1,0,1.6,0.5,1.6,1.6v22.3
			c0,1.1-0.5,1.6-1.6,1.6h-28.9c-3.6,0-6.7-1.3-9.2-3.8l-46.3-46.3c-0.5-0.5-1.2-0.8-1.9-0.8h-12.2c-1.1,0-1.6,0.5-1.6,1.6v47.7
			c0,1.1-0.5,1.6-1.6,1.6h-22.3C282.2,129,281.7,128.5,281.7,127.4z M308.7,52.7h73.1c1.1,0,1.6-0.5,1.6-1.6V28.8
			c0-1.1-0.5-1.6-1.6-1.6h-73.1c-1.1,0-1.6,0.5-1.6,1.6v22.3C307.1,52.1,307.6,52.7,308.7,52.7z"/>
		<path class="st0" d="M434.3,125.6c-3.9-2.3-7-5.4-9.3-9.3c-2.3-3.9-3.4-8.2-3.4-12.7V3.4c0-1.1,0.5-1.6,1.6-1.6h22.3
			c1.1,0,1.6,0.5,1.6,1.6V102c0,1.1,0.5,1.6,1.6,1.6h98.6c1.1,0,1.6,0.5,1.6,1.6v22.3c0,1.1-0.5,1.6-1.6,1.6H447
			C442.5,129,438.2,127.8,434.3,125.6z"/>
		<path class="st0" d="M561.5,127.4V3.4c0-1.1,0.5-1.6,1.6-1.6h100.2c4.6,0,8.8,1.1,12.7,3.4c3.9,2.3,7,5.4,9.3,9.3
			c2.3,3.9,3.4,8.2,3.4,12.7v76.3c0,4.6-1.1,8.8-3.4,12.7c-2.3,3.9-5.4,7-9.3,9.3c-3.9,2.3-8.2,3.4-12.7,3.4H563.1
			C562,129,561.5,128.5,561.5,127.4z M588.5,103.5h73.1c1.1,0,1.6-0.5,1.6-1.6V28.8c0-1.1-0.5-1.6-1.6-1.6h-73.1
			c-1.1,0-1.6,0.5-1.6,1.6V102C586.9,103,587.5,103.5,588.5,103.5z"/>
		<path class="st0" d="M786.7,125.6c-3.9-2.3-7-5.4-9.3-9.3c-2.3-3.9-3.4-8.2-3.4-12.7V27.2c0-4.6,1.1-8.8,3.4-12.7
			c2.3-3.9,5.4-7,9.3-9.3c3.9-2.3,8.2-3.4,12.7-3.4h76.3c4.6,0,8.8,1.1,12.7,3.4c3.9,2.3,7,5.4,9.3,9.3c2.3,3.9,3.4,8.2,3.4,12.7
			v76.3c0,4.6-1.1,8.8-3.4,12.6c-2.3,3.9-5.4,7-9.2,9.3c-3.9,2.3-8.1,3.5-12.8,3.5h-76.3C794.9,129,790.7,127.8,786.7,125.6z
			 M801,103.5h73.1c1.1,0,1.6-0.5,1.6-1.6V28.8c0-1.1-0.5-1.6-1.6-1.6H801c-1.1,0-1.6,0.5-1.6,1.6V102
			C799.5,103,800,103.5,801,103.5z"/>
		<path class="st0" d="M913.9,127.4V27.2c0-4.6,1.1-8.8,3.4-12.7c2.3-3.9,5.4-7,9.3-9.3c3.9-2.3,8.2-3.4,12.7-3.4h100.2
			c1.1,0,1.6,0.5,1.6,1.6v22.3c0,1.1-0.5,1.6-1.6,1.6H941c-1.1,0-1.6,0.5-1.6,1.6v22.3c0,1.1,0.5,1.6,1.6,1.6h98.6
			c1.1,0,1.6,0.5,1.6,1.6v22.3c0,1.1-0.5,1.6-1.6,1.6H941c-1.1,0-1.6,0.5-1.6,1.6v47.7c0,1.1-0.5,1.6-1.6,1.6h-22.3
			C914.5,129,913.9,128.5,913.9,127.4z"/>
	</g>
</g>
<g>
	<path class="st0" d="M1.5,316.8v-28c0-1.3,0.7-2,2-2h124c1.3,0,2-0.7,2-2v-28c0-1.3-0.7-2-2-2h-94c-5.7,0-11.1-1.4-16-4.3
		c-4.9-2.9-8.8-6.8-11.7-11.7c-2.9-4.9-4.3-10.3-4.3-16v-32c0-5.7,1.4-11.1,4.3-16c2.9-4.9,6.8-8.8,11.7-11.7
		c4.9-2.9,10.3-4.3,16-4.3h126c1.3,0,2,0.7,2,2v28c0,1.3-0.7,2-2,2h-124c-1.3,0-2,0.7-2,2v28c0,1.3,0.7,2,2,2h94
		c5.7,0,11.1,1.4,16,4.3c4.9,2.9,8.8,6.8,11.7,11.7c2.9,4.9,4.3,10.3,4.3,16v32c0,5.7-1.4,11.1-4.3,16c-2.9,4.9-6.8,8.8-11.7,11.7
		c-4.9,2.9-10.3,4.3-16,4.3H3.5C2.1,318.8,1.5,318.1,1.5,316.8z"/>
	<path class="st0" d="M193.5,314.5c-4.9-2.9-8.8-6.8-11.7-11.7c-2.9-4.9-4.3-10.3-4.3-16v-96c0-5.7,1.4-11.1,4.3-16
		c2.9-4.9,6.8-8.8,11.7-11.7c4.9-2.9,10.3-4.3,16-4.3h96c5.7,0,11.1,1.4,16,4.3c4.9,2.9,8.8,6.8,11.7,11.7c2.9,4.9,4.3,10.3,4.3,16
		v96c0,5.7-1.4,11-4.3,15.9c-2.9,4.9-6.7,8.8-11.6,11.7c-4.9,2.9-10.2,4.4-16.1,4.4h-96C203.7,318.8,198.4,317.3,193.5,314.5z
		 M211.5,286.8h92c1.3,0,2-0.7,2-2v-92c0-1.3-0.7-2-2-2h-92c-1.3,0-2,0.7-2,2v92C209.5,286.1,210.1,286.8,211.5,286.8z"/>
	<path class="st0" d="M369.5,314.5c-4.9-2.9-8.8-6.8-11.7-11.7c-2.9-4.9-4.3-10.3-4.3-16v-126c0-1.3,0.7-2,2-2h28c1.3,0,2,0.7,2,2
		v124c0,1.3,0.7,2,2,2h124c1.3,0,2,0.7,2,2v28c0,1.3-0.7,2-2,2h-126C379.7,318.8,374.4,317.3,369.5,314.5z"/>
	<path class="st0" d="M529.5,316.8v-126c0-5.7,1.4-11.1,4.3-16c2.9-4.9,6.8-8.8,11.7-11.7c4.9-2.9,10.3-4.3,16-4.3h96
		c5.7,0,11.1,1.4,16,4.3c4.9,2.9,8.8,6.8,11.7,11.7c2.9,4.9,4.3,10.3,4.3,16v126c0,1.3-0.7,2-2,2h-28c-1.3,0-2-0.7-2-2v-60
		c0-1.3-0.7-2-2-2h-92c-1.3,0-2,0.7-2,2v60c0,1.3-0.7,2-2,2h-28C530.1,318.8,529.5,318.1,529.5,316.8z M655.5,222.8c1.3,0,2-0.7,2-2
		v-28c0-1.3-0.7-2-2-2h-92c-1.3,0-2,0.7-2,2v28c0,1.3,0.7,2,2,2H655.5z"/>
	<path class="st0" d="M705.5,316.8v-142c0-4.4,1.6-8.2,4.7-11.3c3.1-3.1,6.9-4.7,11.3-4.7s8.2,1.6,11.4,4.8l98.2,98.2
		c0.4,0.4,0.9,0.6,1.4,0.6c0.7,0,1-0.5,1-1.6v-100c0-1.3,0.7-2,2-2h28c1.3,0,2,0.7,2,2v142c0,4.4-1.6,8.2-4.7,11.3
		c-3.1,3.1-6.9,4.7-11.3,4.7s-8.2-1.6-11.4-4.8l-98.2-98.2c-0.4-0.4-0.9-0.6-1.4-0.6c-0.7,0-1,0.5-1,1.6v100c0,1.3-0.7,2-2,2h-28
		C706.1,318.8,705.5,318.1,705.5,316.8z"/>
	<path class="st0" d="M881.5,316.8v-126c0-5.7,1.4-11.1,4.3-16c2.9-4.9,6.8-8.8,11.7-11.7c4.9-2.9,10.3-4.3,16-4.3h96
		c5.7,0,11.1,1.4,16,4.3c4.9,2.9,8.8,6.8,11.7,11.7c2.9,4.9,4.3,10.3,4.3,16v126c0,1.3-0.7,2-2,2h-28c-1.3,0-2-0.7-2-2v-60
		c0-1.3-0.7-2-2-2h-92c-1.3,0-2,0.7-2,2v60c0,1.3-0.7,2-2,2h-28C882.1,318.8,881.5,318.1,881.5,316.8z M1007.5,222.8
		c1.3,0,2-0.7,2-2v-28c0-1.3-0.7-2-2-2h-92c-1.3,0-2,0.7-2,2v28c0,1.3,0.7,2,2,2H1007.5z"/>
</g>
<linearGradient id="SVGID_1_" gradientUnits="userSpaceOnUse" x1="206.5141" y1="288.5526" x2="307.6173" y2="187.4494">
	<stop  offset="0" style="stop-color:#9945FF"/>
	<stop  offset="1" style="stop-color:#14F195"/>
</linearGradient>
<rect x="206.4" y="187.5" class="st1" width="101.2" height="101.2"/>
</svg>
